<svg xmlns="http://www.w3.org/2000/svg" version="1.1" xmlns:xlink="http://www.w3.org/1999/xlink" xmlns:svgjs="http://svgjs.dev/svgjs" width="128" height="128" viewBox="0 0 128 128"><g transform="matrix(0.8046875,0,0,0.8046875,12.760752631578946,12.760752631578946)"><svg viewBox="0 0 95 95" data-background-color="#ffffff" preserveAspectRatio="xMidYMid meet" height="128" width="128" xmlns="http://www.w3.org/2000/svg" xmlns:xlink="http://www.w3.org/1999/xlink"><g id="tight-bounds" transform="matrix(1,0,0,1,-0.24049999999999727,-0.24049999999999727)"><svg viewBox="0 0 95.481 95.481" height="95.481" width="95.481"><g><svg viewBox="0 0 95.481 95.481" height="95.481" width="95.481"><g><svg viewBox="0 0 95.481 95.481" height="95.481" width="95.481"><g id="textblocktransform"><svg viewBox="0 0 95.481 95.481" height="95.481" width="95.481" id="textblock"><g><svg viewBox="0 0 95.481 95.481" height="95.481" width="95.481"><g><svg viewBox="0 0 95.481 95.481" height="95.481" width="95.481"><g><svg xmlns:dc="http://purl.org/dc/elements/1.1/" xmlns:cc="http://creativecommons.org/ns#" xmlns:rdf="http://www.w3.org/1999/02/22-rdf-syntax-ns#" xmlns:svg="http://www.w3.org/2000/svg" xmlns="http://www.w3.org/2000/svg" version="1.1" x="0" y="0" viewBox="5 5 90 90" height="95.481" width="95.481" class="icon-icon-0" data-fill-palette-color="accent" id="icon-0"><path d="M54.007 5c-11.802 0-21.37 9.568-21.37 21.37 0 10.317 7.311 18.925 17.035 20.929-4.753-2.855-7.877-7.677-7.877-13.145 0-8.768 8.03-15.876 17.936-15.875 6.718 0 12.573 3.269 15.646 8.108l0-0.017C75.377 14.568 65.809 5 54.007 5zM26.37 24.623C14.568 24.623 5 34.191 5 45.993c0 11.802 9.568 21.37 21.37 21.37 10.317 0 18.925-7.311 20.929-17.035-2.855 4.753-7.677 7.877-13.145 7.877-8.767 0-15.875-8.03-15.875-17.936 0-6.718 3.269-12.573 8.107-15.646l-0.016 0z m47.26 8.014c-10.317 0-18.925 7.311-20.929 17.035 2.855-4.753 7.677-7.877 13.145-7.877 8.767 0 15.875 8.03 15.875 17.936 0 6.718-3.269 12.573-8.107 15.646l0.016 0C85.432 75.377 95 65.809 95 54.007 95 42.204 85.432 32.637 73.63 32.637zM50.328 52.701c4.753 2.855 7.877 7.677 7.877 13.145 0 8.767-8.03 15.875-17.936 15.875-6.718 0-12.573-3.269-15.646-8.108l0 0.017C24.623 85.432 34.191 95 45.993 95c11.802 0 21.37-9.568 21.37-21.37 0-10.317-7.311-18.925-17.035-20.929z" fill="#0055d9" fill-opacity="1" fill-rule="nonzero" stroke="none" marker="none" visibility="visible" display="inline" overflow="visible" color="#0055d9" enable-background="accumulate" data-fill-palette-color="accent"></path></svg></g></svg></g></svg></g></svg></g></svg></g></svg></g><defs></defs></svg><rect width="95.481" height="95.481" fill="none" stroke="none" visibility="hidden"></rect></g></svg></g></svg>